<svg xmlns="http://www.w3.org/2000/svg" viewBox="0 0 64 64" role="img" aria-label="AI Powered Chatbot logo">
  <defs>
    <linearGradient id="bg" x1="0" y1="0" x2="1" y2="1">
      <stop offset="0" stop-color="#0ea5e9" />
      <stop offset="1" stop-color="#0369a1" />
    </linearGradient>
  </defs>
  <rect width="64" height="64" rx="14" fill="url(#bg)" />
  <path d="M14 18h36a6 6 0 0 1 6 6v16a6 6 0 0 1-6 6H31l-8 6v-6h-9a6 6 0 0 1-6-6V24a6 6 0 0 1 6-6Z" fill="#ffffff" opacity="0.94" />
  <circle cx="24" cy="32" r="2.2" fill="#0284c7" />
  <circle cx="32" cy="32" r="2.2" fill="#0284c7" />
  <circle cx="40" cy="32" r="2.2" fill="#0284c7" />
  <ellipse cx="48" cy="18" rx="9" ry="5" fill="#7dd3fc" />
  <path d="M39 18v6c0 2.8 4 5 9 5s9-2.2 9-5v-6" fill="#7dd3fc" opacity="0.8" />
</svg>
